<svg width="489.551" height="97.852" viewBox="0 0 489.551 97.852" xmlns="http://www.w3.org/2000/svg"><g id="svgGroup" stroke-linecap="round" fill-rule="evenodd" font-size="9pt" stroke="#000" stroke-width="0.25mm" fill="#000" style="stroke:#000;stroke-width:0.25mm;fill:#000"><path d="M 67.774 38.184 L 67.774 39.112 A 56.852 56.852 0 0 1 67.185 45.936 A 64.617 64.617 0 0 1 66.919 47.608 Q 66.163 52.002 64.795 56.397 A 80.354 80.354 0 0 1 61.524 65.088 A 74.105 74.105 0 0 1 57.251 73.316 A 69.493 69.493 0 0 1 52.149 80.689 A 47.429 47.429 0 0 1 47.906 85.377 A 41.529 41.529 0 0 1 46.387 86.768 L 39.112 82.569 Q 40.821 79.688 42.212 76.294 A 78.913 78.913 0 0 0 44.657 69.421 A 85.879 85.879 0 0 0 44.727 69.19 A 86.85 86.85 0 0 0 46.656 61.573 Q 47.461 57.666 47.999 53.809 A 114.704 114.704 0 0 0 48.804 46.216 A 104.299 104.299 0 0 0 49.047 41.253 A 88.933 88.933 0 0 0 49.073 39.112 A 683.378 683.378 0 0 0 49.067 36.484 Q 49.062 35.104 49.051 33.571 A 1139.083 1139.083 0 0 0 49.048 33.13 Q 49.024 29.785 48.658 26.319 A 48.528 48.528 0 0 0 47.461 19.556 A 21.278 21.278 0 0 0 46.025 15.535 A 18.311 18.311 0 0 0 44.996 13.672 A 12.789 12.789 0 0 0 40.796 9.522 A 10.252 10.252 0 0 0 37.62 8.28 Q 36.15 7.959 34.424 7.959 Q 31.299 7.959 28.992 8.947 A 10.064 10.064 0 0 0 28.638 9.107 A 12.478 12.478 0 0 0 24.537 12.183 A 15.084 15.084 0 0 0 21.995 16.297 A 17.119 17.119 0 0 0 21.851 16.651 A 31.264 31.264 0 0 0 20.289 21.997 A 41.478 41.478 0 0 0 19.556 27.661 A 96.855 96.855 0 0 0 19.409 31.108 A 80.888 80.888 0 0 0 19.385 33.057 L 19.385 46.68 L 40.43 46.68 L 40.43 54.737 L 19.385 54.737 L 19.385 71.826 L 0 71.826 L 0 36.084 A 42.379 42.379 0 0 1 1.207 25.835 A 37.699 37.699 0 0 1 2.442 21.826 A 34.899 34.899 0 0 1 7.747 12.259 A 32.644 32.644 0 0 1 9.351 10.376 A 31.784 31.784 0 0 1 20.093 2.759 A 32.754 32.754 0 0 1 30.086 0.195 A 40.18 40.18 0 0 1 34.083 0 A 32.537 32.537 0 0 1 41.252 0.77 A 28.992 28.992 0 0 1 43.873 1.49 A 31.751 31.751 0 0 1 52.198 5.591 A 33.199 33.199 0 0 1 58.912 11.792 A 36.551 36.551 0 0 1 63.843 19.629 A 42.545 42.545 0 0 1 66.846 28.614 A 41.145 41.145 0 0 1 67.782 37.344 A 41.586 41.586 0 0 1 67.774 38.184 Z M 340.772 38.184 L 340.772 39.112 A 56.852 56.852 0 0 1 340.183 45.936 A 64.617 64.617 0 0 1 339.917 47.608 Q 339.161 52.002 337.793 56.397 A 80.354 80.354 0 0 1 334.522 65.088 A 74.105 74.105 0 0 1 330.25 73.316 A 69.493 69.493 0 0 1 325.147 80.689 A 47.429 47.429 0 0 1 320.904 85.377 A 41.529 41.529 0 0 1 319.385 86.768 L 312.11 82.569 Q 313.819 79.688 315.21 76.294 A 78.913 78.913 0 0 0 317.655 69.421 A 85.879 85.879 0 0 0 317.725 69.19 A 86.85 86.85 0 0 0 319.654 61.573 Q 320.459 57.666 320.997 53.809 A 114.704 114.704 0 0 0 321.802 46.216 A 104.299 104.299 0 0 0 322.045 41.253 A 88.933 88.933 0 0 0 322.071 39.112 A 683.378 683.378 0 0 0 322.065 36.484 Q 322.06 35.104 322.05 33.571 A 1139.083 1139.083 0 0 0 322.046 33.13 Q 322.022 29.785 321.656 26.319 A 48.528 48.528 0 0 0 320.459 19.556 A 21.278 21.278 0 0 0 319.023 15.535 A 18.311 18.311 0 0 0 317.994 13.672 A 12.789 12.789 0 0 0 313.794 9.522 A 10.252 10.252 0 0 0 310.618 8.28 Q 309.148 7.959 307.422 7.959 Q 304.297 7.959 301.991 8.947 A 10.064 10.064 0 0 0 301.636 9.107 A 12.478 12.478 0 0 0 297.535 12.183 A 15.084 15.084 0 0 0 294.993 16.297 A 17.119 17.119 0 0 0 294.849 16.651 A 31.264 31.264 0 0 0 293.287 21.997 A 41.478 41.478 0 0 0 292.554 27.661 A 96.855 96.855 0 0 0 292.407 31.108 A 80.888 80.888 0 0 0 292.383 33.057 L 292.383 46.68 L 313.428 46.68 L 313.428 54.737 L 292.383 54.737 L 292.383 71.826 L 272.999 71.826 L 272.999 36.084 A 42.379 42.379 0 0 1 274.206 25.835 A 37.699 37.699 0 0 1 275.44 21.826 A 34.899 34.899 0 0 1 280.745 12.259 A 32.644 32.644 0 0 1 282.349 10.376 A 31.784 31.784 0 0 1 293.091 2.759 A 32.754 32.754 0 0 1 303.084 0.195 A 40.18 40.18 0 0 1 307.081 0 A 32.537 32.537 0 0 1 314.25 0.77 A 28.992 28.992 0 0 1 316.871 1.49 A 31.751 31.751 0 0 1 325.196 5.591 A 33.199 33.199 0 0 1 331.91 11.792 A 36.551 36.551 0 0 1 336.841 19.629 A 42.545 42.545 0 0 1 339.844 28.614 A 41.145 41.145 0 0 1 340.78 37.344 A 41.586 41.586 0 0 1 340.772 38.184 Z M 135.645 15.43 L 135.645 65.039 A 40.375 40.375 0 0 1 134.336 75.426 A 37.04 37.04 0 0 1 133.643 77.735 Q 131.641 83.692 127.833 88.159 A 27.545 27.545 0 0 1 118.482 95.24 A 27.221 27.221 0 0 1 110.341 97.571 A 34.65 34.65 0 0 1 105.86 97.852 Q 101.954 97.852 97.974 96.973 A 30.705 30.705 0 0 1 90.455 94.263 A 25.472 25.472 0 0 1 84.107 89.624 A 20.601 20.601 0 0 1 79.688 83.008 L 86.817 80.323 A 18.572 18.572 0 0 0 89.234 84.717 Q 90.723 86.719 92.676 88.159 A 15.901 15.901 0 0 0 96.973 90.406 Q 99.317 91.211 101.905 91.211 Q 106.329 91.211 109.45 89.568 A 11.889 11.889 0 0 0 110.084 89.209 Q 113.379 87.207 115.381 83.985 A 22.099 22.099 0 0 0 117.824 78.428 A 26.015 26.015 0 0 0 118.262 76.685 A 39.164 39.164 0 0 0 119.141 68.408 L 119.141 65.088 A 19.328 19.328 0 0 1 115.04 69.261 A 17.241 17.241 0 0 1 112.085 71.021 A 20.756 20.756 0 0 1 104.286 72.917 A 24.459 24.459 0 0 1 103.028 72.949 A 30.981 30.981 0 0 1 96.61 72.311 A 24.827 24.827 0 0 1 91.504 70.655 A 25.09 25.09 0 0 1 82.911 64.38 A 27.221 27.221 0 0 1 77.902 56.024 A 31.324 31.324 0 0 1 77.54 55.03 A 34.364 34.364 0 0 1 75.729 45.41 A 39.636 39.636 0 0 1 75.684 43.506 Q 75.684 37.354 77.54 31.983 A 28.127 28.127 0 0 1 81.452 24.44 A 26.041 26.041 0 0 1 82.911 22.632 A 25.09 25.09 0 0 1 91.504 16.358 A 25.67 25.67 0 0 1 98.758 14.334 A 32.608 32.608 0 0 1 103.028 14.063 A 19.706 19.706 0 0 1 109.253 15.039 A 19.801 19.801 0 0 1 114.673 17.798 A 20.135 20.135 0 0 1 119.019 22.095 A 20.632 20.632 0 0 1 121.973 27.686 L 129.297 15.43 L 135.645 15.43 Z M 372.754 45.557 L 372.754 71.826 L 353.37 71.826 L 353.37 1.514 L 391.358 1.514 Q 396.29 1.514 400.806 2.832 A 24.699 24.699 0 0 1 406.991 5.565 A 22.536 22.536 0 0 1 408.79 6.812 A 19.652 19.652 0 0 1 414.332 13.501 A 18.333 18.333 0 0 1 416.09 18.928 A 24.516 24.516 0 0 1 416.407 22.949 A 21.264 21.264 0 0 1 415.857 27.843 A 19.133 19.133 0 0 1 415.43 29.37 A 20.827 20.827 0 0 1 412.72 34.864 A 23.685 23.685 0 0 1 408.643 39.356 A 24.478 24.478 0 0 1 403.516 42.725 A 27.785 27.785 0 0 1 397.632 44.824 A 27.202 27.202 0 0 1 391.358 45.557 L 372.754 45.557 Z M 445.899 45.557 L 445.899 71.826 L 426.514 71.826 L 426.514 1.514 L 464.502 1.514 Q 469.434 1.514 473.951 2.832 A 24.699 24.699 0 0 1 480.135 5.565 A 22.536 22.536 0 0 1 481.934 6.812 A 19.652 19.652 0 0 1 487.476 13.501 A 18.333 18.333 0 0 1 489.235 18.928 A 24.516 24.516 0 0 1 489.551 22.949 A 21.264 21.264 0 0 1 489.002 27.843 A 19.133 19.133 0 0 1 488.575 29.37 A 20.827 20.827 0 0 1 485.865 34.864 A 23.685 23.685 0 0 1 481.788 39.356 A 24.478 24.478 0 0 1 476.661 42.725 A 27.785 27.785 0 0 1 470.777 44.824 A 27.202 27.202 0 0 1 464.502 45.557 L 445.899 45.557 Z M 197.364 20.41 L 188.086 35.791 A 53.039 53.039 0 0 0 187.508 33.989 Q 187.198 33.075 186.827 32.074 A 89.107 89.107 0 0 0 186.573 31.397 A 24.459 24.459 0 0 0 184.278 26.831 A 13.827 13.827 0 0 0 181.301 23.496 A 13.113 13.113 0 0 0 181.006 23.267 A 7.086 7.086 0 0 0 176.612 21.826 A 7.552 7.552 0 0 0 174.469 22.119 A 6.323 6.323 0 0 0 172.632 22.998 Q 170.948 24.17 169.776 26.05 Q 168.604 27.93 167.847 30.298 Q 167.09 32.666 166.675 35.083 Q 166.26 37.5 166.114 39.722 A 79.608 79.608 0 0 0 166.025 41.302 Q 165.989 42.081 165.975 42.766 A 40.371 40.371 0 0 0 165.967 43.555 L 165.967 71.826 L 149.415 71.826 L 149.415 15.43 L 155.762 15.43 L 162.452 28.565 A 38.339 38.339 0 0 1 164.879 23.832 A 34.136 34.136 0 0 1 165.577 22.73 A 21.466 21.466 0 0 1 169.064 18.634 A 19.919 19.919 0 0 1 169.629 18.14 A 17.38 17.38 0 0 1 174.83 15.137 A 17.016 17.016 0 0 1 178.546 14.24 A 22.096 22.096 0 0 1 181.397 14.063 A 27.09 27.09 0 0 1 183.411 14.142 Q 184.44 14.219 185.572 14.37 A 43.487 43.487 0 0 1 185.645 14.38 A 24.738 24.738 0 0 1 190.235 15.454 A 18.747 18.747 0 0 1 194.385 17.432 A 9.84 9.84 0 0 1 196.441 19.168 A 8.65 8.65 0 0 1 197.364 20.41 Z M 261.749 49.546 A 29.309 29.309 0 0 0 262.354 43.506 A 31.605 31.605 0 0 0 262.336 42.427 A 27.931 27.931 0 0 0 261.182 35.279 A 28.839 28.839 0 0 0 257.935 28.125 Q 255.86 24.854 252.93 22.241 Q 250 19.629 246.509 17.823 A 33.626 33.626 0 0 0 239.039 15.039 Q 235.059 14.063 230.86 14.063 A 33.891 33.891 0 0 0 222.706 15.039 A 33.73 33.73 0 0 0 215.259 17.823 A 31.056 31.056 0 0 0 208.838 22.241 A 27.81 27.81 0 0 0 203.834 28.125 A 28.839 28.839 0 0 0 200.586 35.279 A 26.414 26.414 0 0 0 200.188 36.751 A 28.867 28.867 0 0 0 199.415 43.506 A 31.605 31.605 0 0 0 199.433 44.585 A 27.931 27.931 0 0 0 200.586 51.734 A 28.839 28.839 0 0 0 203.834 58.887 Q 205.909 62.158 208.838 64.771 Q 211.768 67.383 215.259 69.19 A 33.73 33.73 0 0 0 222.706 71.973 Q 226.661 72.949 230.86 72.949 A 34.191 34.191 0 0 0 239.039 71.973 Q 243.018 70.996 246.509 69.19 A 31.056 31.056 0 0 0 252.93 64.771 A 27.81 27.81 0 0 0 257.935 58.887 A 28.942 28.942 0 0 0 261.182 51.758 A 26 26 0 0 0 261.749 49.546 Z M 245.557 43.506 A 46.032 46.032 0 0 0 245.43 40.157 A 54.588 54.588 0 0 0 245.289 38.55 A 35.933 35.933 0 0 0 244.385 33.423 Q 243.75 30.908 242.652 28.589 A 16.385 16.385 0 0 0 240.716 25.44 A 14.691 14.691 0 0 0 239.942 24.536 Q 238.331 22.803 236.084 21.753 A 10.927 10.927 0 0 0 233.159 20.877 A 14.632 14.632 0 0 0 230.86 20.703 A 12.779 12.779 0 0 0 228.187 20.972 A 10.185 10.185 0 0 0 225.831 21.778 A 12.762 12.762 0 0 0 221.998 24.634 Q 220.362 26.416 219.263 28.76 Q 218.165 31.104 217.481 33.618 A 34.086 34.086 0 0 0 216.504 38.697 A 46.081 46.081 0 0 0 216.256 41.703 A 37.404 37.404 0 0 0 216.211 43.506 A 39.292 39.292 0 0 0 216.326 46.438 A 48.361 48.361 0 0 0 216.504 48.316 Q 216.797 50.879 217.481 53.418 Q 218.165 55.957 219.263 58.277 A 16.529 16.529 0 0 0 221.696 62.039 A 15.458 15.458 0 0 0 221.998 62.378 A 12.762 12.762 0 0 0 225.831 65.235 A 10.508 10.508 0 0 0 229.07 66.193 A 13.44 13.44 0 0 0 230.86 66.309 A 13.898 13.898 0 0 0 233.578 66.055 A 10.734 10.734 0 0 0 236.036 65.259 A 12.437 12.437 0 0 0 239.917 62.451 A 15.598 15.598 0 0 0 242.594 58.47 A 17.424 17.424 0 0 0 242.627 58.399 Q 243.702 56.104 244.361 53.565 Q 245.02 51.026 245.289 48.438 A 50.255 50.255 0 0 0 245.531 44.995 A 42.96 42.96 0 0 0 245.557 43.506 Z M 119.043 43.506 A 49.251 49.251 0 0 0 118.94 40.37 A 58.011 58.011 0 0 0 118.824 38.867 A 37.317 37.317 0 0 0 118.067 34.033 Q 117.53 31.641 116.578 29.468 A 14.693 14.693 0 0 0 114.229 25.716 A 13.937 13.937 0 0 0 114.136 25.611 Q 112.647 23.926 110.547 22.949 A 10.252 10.252 0 0 0 107.813 22.134 A 13.735 13.735 0 0 0 105.665 21.973 A 13.033 13.033 0 0 0 103.293 22.178 A 9.543 9.543 0 0 0 100.831 22.974 Q 98.78 23.975 97.315 25.659 A 14.704 14.704 0 0 0 95.112 29.067 A 16.708 16.708 0 0 0 94.898 29.541 Q 93.946 31.739 93.409 34.131 A 37.391 37.391 0 0 0 92.652 38.941 A 54.132 54.132 0 0 0 92.463 41.857 A 45.06 45.06 0 0 0 92.432 43.506 A 47.674 47.674 0 0 0 92.518 46.306 A 58.063 58.063 0 0 0 92.652 48.096 A 37.317 37.317 0 0 0 93.409 52.93 Q 93.946 55.323 94.898 57.52 A 15.178 15.178 0 0 0 96.784 60.752 A 13.89 13.89 0 0 0 97.315 61.402 A 10.998 10.998 0 0 0 100.831 64.087 A 9.582 9.582 0 0 0 103.369 64.897 A 13.107 13.107 0 0 0 105.665 65.088 A 10.485 10.485 0 0 0 108.204 64.792 A 8.66 8.66 0 0 0 110.181 64.038 A 11.711 11.711 0 0 0 113.648 61.231 A 16.971 16.971 0 0 0 115.899 57.781 A 19.154 19.154 0 0 0 116.163 57.227 A 29.147 29.147 0 0 0 117.823 52.588 A 35.595 35.595 0 0 0 118.75 47.827 A 41.141 41.141 0 0 0 118.97 45.563 A 30.463 30.463 0 0 0 119.043 43.506 Z M 382.959 8.399 L 372.754 8.399 L 372.754 38.916 L 382.959 38.916 Q 386.223 38.916 388.637 37.991 A 11.046 11.046 0 0 0 389.283 37.72 A 11.359 11.359 0 0 0 392.841 35.209 A 10.876 10.876 0 0 0 393.555 34.375 A 13.683 13.683 0 0 0 395.605 30.578 A 16.413 16.413 0 0 0 395.997 29.322 A 22.616 22.616 0 0 0 396.668 25.471 A 28.137 28.137 0 0 0 396.778 22.949 A 21.592 21.592 0 0 0 396.371 18.627 Q 395.837 16.015 394.603 13.995 A 12.043 12.043 0 0 0 393.335 12.281 A 10.878 10.878 0 0 0 388.21 9.096 Q 385.898 8.399 382.959 8.399 Z M 456.104 8.399 L 445.899 8.399 L 445.899 38.916 L 456.104 38.916 Q 459.367 38.916 461.781 37.991 A 11.046 11.046 0 0 0 462.427 37.72 A 11.359 11.359 0 0 0 465.986 35.209 A 10.876 10.876 0 0 0 466.7 34.375 A 13.683 13.683 0 0 0 468.75 30.578 A 16.413 16.413 0 0 0 469.141 29.322 A 22.616 22.616 0 0 0 469.813 25.471 A 28.137 28.137 0 0 0 469.922 22.949 A 21.592 21.592 0 0 0 469.516 18.627 Q 468.982 16.015 467.747 13.995 A 12.043 12.043 0 0 0 466.48 12.281 A 10.878 10.878 0 0 0 461.354 9.096 Q 459.043 8.399 456.104 8.399 Z" vector-effect="non-scaling-stroke"/></g></svg>